<svg xmlns="http://www.w3.org/2000/svg" role="img" viewBox="0 0 760 318" width="760" height="318">
  <title>Floating-Point Benchmarks — Compiled</title>
  <style>
    text     { font-family: -apple-system, "Segoe UI", Helvetica, Arial, sans-serif; }
    .surface { fill: #fcfcfb; stroke: #d8d8d4; }
    .title   { fill: #0b0b0b; font-size: 17px; font-weight: 600; }
    .sub     { fill: #52514e; font-size: 11.5px; }
    .metric  { fill: #0b0b0b; font-size: 12.5px; font-weight: 600; }
    .unit    { fill: #77756e; font-size: 10.5px; }
    .note    { fill: #77756e; font-size: 10px; font-style: italic; }
    .name    { fill: #52514e; font-size: 11.5px; }
    .legend  { fill: #52514e; font-size: 11px; }
    .val     { fill: #0b0b0b; font-size: 11.5px; font-weight: 600; }
    .rule    { stroke: #e4e4e0; stroke-width: 1; stroke-dasharray: 2 3; }
    .axis    { stroke: #d8d8d4; stroke-width: 1; }
    .s-sf { fill: #7c3aed; }
    .s-cl { fill: #eb6834; }
    .s-v8 { fill: #1baf7a; }
    .s-wn { fill: #b02a8f; }
    .s-si { fill: #a855f7; }
    .s-w3 { fill: #eda100; }
    .s-wi { fill: #4a9ede; }
    @media (prefers-color-scheme: dark) {
      .surface { fill: #1a1a19; stroke: #3a3a37; }
      .title, .metric { fill: #ffffff; }
      .sub, .name, .legend { fill: #c3c2b7; }
      .val     { fill: #ffffff; }
      .unit, .note { fill: #96958c; }
      .rule    { stroke: #3a3a37; }
      .axis    { stroke: #3a3a37; }
      .s-sf { fill: #8b5cf6; }
      .s-cl { fill: #d95926; }
      .s-v8 { fill: #199e70; }
      .s-wn { fill: #c13a9d; }
      .s-si { fill: #9085e9; }
      .s-w3 { fill: #c98500; }
      .s-wi { fill: #3987e5; }
    }
  </style>
  <rect class="surface" width="760" height="318" rx="8" ry="8" stroke-width="1"/>
  <text class="title" x="380" y="30" text-anchor="middle">Floating-Point Benchmarks — Compiled</text>
  <text class="sub" x="380" y="47" text-anchor="middle">Apple M4 · longer bar = better · each row scaled to its own best</text>
  <rect class="s-sf" x="176.0" y="53" width="10" height="10" rx="2"/>
  <text class="legend" x="191.0" y="62">Silverfir (JIT)</text>
  <rect class="s-cl" x="317.0" y="53" width="10" height="10" rx="2"/>
  <text class="legend" x="332.0" y="62">Cranelift 47.0.2</text>
  <rect class="s-v8" x="458.0" y="53" width="10" height="10" rx="2"/>
  <text class="legend" x="473.0" y="62">V8 / Node 25.9</text>
  <rect class="s-wn" x="599.0" y="53" width="10" height="10" rx="2"/>
  <text class="legend" x="614.0" y="62">Winch 47.0.2</text>
  <line class="axis" x1="176" y1="76" x2="176" y2="308"/>

  <text class="metric" x="168" y="94" text-anchor="end">mandelbrot</text>
  <text class="unit" x="176" y="94">Kpixel/s</text>
  <text class="name" x="168" y="117" text-anchor="end">Silverfir (JIT)</text>
  <rect class="s-sf" x="176" y="104" width="452.0" height="18" rx="4"/>
  <text class="val" x="634.0" y="117">503.3</text>
  <text class="name" x="168" y="137" text-anchor="end">Cranelift 47.0.2</text>
  <rect class="s-cl" x="176" y="124" width="451.4" height="18" rx="4"/>
  <text class="val" x="633.4" y="137">502.6</text>
  <text class="name" x="168" y="157" text-anchor="end">V8 / Node 25.9</text>
  <rect class="s-v8" x="176" y="144" width="268.4" height="18" rx="4"/>
  <text class="val" x="450.4" y="157">298.9</text>
  <text class="name" x="168" y="177" text-anchor="end">Winch 47.0.2</text>
  <rect class="s-wn" x="176" y="164" width="165.2" height="18" rx="4"/>
  <text class="val" x="347.2" y="177">184</text>
  <text class="metric" x="168" y="210" text-anchor="end">c-ray</text>
  <text class="unit" x="176" y="210">Kpixel/s</text>
  <text class="name" x="168" y="233" text-anchor="end">Silverfir (JIT)</text>
  <rect class="s-sf" x="176" y="220" width="414.2" height="18" rx="4"/>
  <text class="val" x="596.2" y="233">9,809</text>
  <text class="name" x="168" y="253" text-anchor="end">Cranelift 47.0.2</text>
  <rect class="s-cl" x="176" y="240" width="444.0" height="18" rx="4"/>
  <text class="val" x="626.0" y="253">10,515</text>
  <text class="name" x="168" y="273" text-anchor="end">V8 / Node 25.9</text>
  <rect class="s-v8" x="176" y="260" width="452.0" height="18" rx="4"/>
  <text class="val" x="634.0" y="273">10,705</text>
  <text class="name" x="168" y="293" text-anchor="end">Winch 47.0.2</text>
  <rect class="s-wn" x="176" y="280" width="117.9" height="18" rx="4"/>
  <text class="val" x="299.9" y="293">2,792</text>
</svg>
