<svg xmlns="http://www.w3.org/2000/svg" role="img" viewBox="0 0 760 662" width="760" height="662">
  <title>Integer / Control Flow — Compiled (JIT)</title>
  <style>
    text     { font-family: -apple-system, "Segoe UI", Helvetica, Arial, sans-serif; }
    .surface { fill: #fcfcfb; stroke: #d8d8d4; }
    .title   { fill: #0b0b0b; font-size: 17px; font-weight: 600; }
    .sub     { fill: #52514e; font-size: 11.5px; }
    .metric  { fill: #0b0b0b; font-size: 12.5px; font-weight: 600; }
    .unit    { fill: #77756e; font-size: 10.5px; }
    .note    { fill: #77756e; font-size: 10px; font-style: italic; }
    .name    { fill: #52514e; font-size: 11.5px; }
    .legend  { fill: #52514e; font-size: 11px; }
    .val     { fill: #0b0b0b; font-size: 11.5px; font-weight: 600; }
    .rule    { stroke: #e4e4e0; stroke-width: 1; stroke-dasharray: 2 3; }
    .axis    { stroke: #d8d8d4; stroke-width: 1; }
    .s-sf { fill: #7c3aed; }
    .s-cl { fill: #eb6834; }
    .s-v8 { fill: #1baf7a; }
    .s-si { fill: #a855f7; }
    .s-w3 { fill: #eda100; }
    .s-wi { fill: #4a9ede; }
    @media (prefers-color-scheme: dark) {
      .surface { fill: #1a1a19; stroke: #3a3a37; }
      .title, .metric { fill: #ffffff; }
      .sub, .name, .legend { fill: #c3c2b7; }
      .val     { fill: #ffffff; }
      .unit, .note { fill: #96958c; }
      .rule    { stroke: #3a3a37; }
      .axis    { stroke: #3a3a37; }
      .s-sf { fill: #8b5cf6; }
      .s-cl { fill: #d95926; }
      .s-v8 { fill: #199e70; }
      .s-si { fill: #9085e9; }
      .s-w3 { fill: #c98500; }
      .s-wi { fill: #3987e5; }
    }
  </style>
  <rect class="surface" width="760" height="662" rx="8" ry="8" stroke-width="1"/>
  <text class="title" x="380" y="30" text-anchor="middle">Integer / Control Flow — Compiled (JIT)</text>
  <text class="sub" x="380" y="47" text-anchor="middle">Apple M4 · longer bar = better · each row scaled to its own best</text>
  <rect class="s-sf" x="176" y="53" width="10" height="10" rx="2"/>
  <text class="legend" x="191" y="62">Silverfir (JIT)</text>
  <rect class="s-cl" x="372" y="53" width="10" height="10" rx="2"/>
  <text class="legend" x="387" y="62">Cranelift 47.0.2</text>
  <rect class="s-v8" x="568" y="53" width="10" height="10" rx="2"/>
  <text class="legend" x="583" y="62">V8 / Node 25.9</text>
  <line class="axis" x1="176" y1="76" x2="176" y2="652"/>

  <text class="metric" x="168" y="94" text-anchor="end">CoreMark</text>
  <text class="unit" x="176" y="94">score</text>
  <text class="name" x="168" y="117" text-anchor="end">Silverfir (JIT)</text>
  <rect class="s-sf" x="176" y="104" width="443.0" height="18" rx="4"/>
  <text class="val" x="625.0" y="117">44,958</text>
  <text class="name" x="168" y="137" text-anchor="end">Cranelift 47.0.2</text>
  <rect class="s-cl" x="176" y="124" width="452.0" height="18" rx="4"/>
  <text class="val" x="634.0" y="137">45,874</text>
  <text class="name" x="168" y="157" text-anchor="end">V8 / Node 25.9</text>
  <rect class="s-v8" x="176" y="144" width="437.3" height="18" rx="4"/>
  <text class="val" x="619.3" y="157">44,378</text>
  <text class="metric" x="168" y="190" text-anchor="end">SHA-256</text>
  <text class="unit" x="176" y="190">MB/s</text>
  <text class="name" x="168" y="213" text-anchor="end">Silverfir (JIT)</text>
  <rect class="s-sf" x="176" y="200" width="452.0" height="18" rx="4"/>
  <text class="val" x="634.0" y="213">250.6</text>
  <text class="name" x="168" y="233" text-anchor="end">Cranelift 47.0.2</text>
  <rect class="s-cl" x="176" y="220" width="391.0" height="18" rx="4"/>
  <text class="val" x="573.0" y="233">216.8</text>
  <text class="name" x="168" y="253" text-anchor="end">V8 / Node 25.9</text>
  <rect class="s-v8" x="176" y="240" width="383.1" height="18" rx="4"/>
  <text class="val" x="565.1" y="253">212.4</text>
  <text class="metric" x="168" y="286" text-anchor="end">bzip2</text>
  <text class="unit" x="176" y="286">MB/s</text>
  <text class="name" x="168" y="309" text-anchor="end">Silverfir (JIT)</text>
  <rect class="s-sf" x="176" y="296" width="452.0" height="18" rx="4"/>
  <text class="val" x="634.0" y="309">30.68</text>
  <text class="name" x="168" y="329" text-anchor="end">Cranelift 47.0.2</text>
  <rect class="s-cl" x="176" y="316" width="395.7" height="18" rx="4"/>
  <text class="val" x="577.7" y="329">26.86</text>
  <text class="name" x="168" y="349" text-anchor="end">V8 / Node 25.9</text>
  <rect class="s-v8" x="176" y="336" width="437.0" height="18" rx="4"/>
  <text class="val" x="619.0" y="349">29.66</text>
  <text class="metric" x="168" y="382" text-anchor="end">LZ4 compress</text>
  <text class="unit" x="176" y="382">MB/s</text>
  <text class="name" x="168" y="405" text-anchor="end">Silverfir (JIT)</text>
  <rect class="s-sf" x="176" y="392" width="452.0" height="18" rx="4"/>
  <text class="val" x="634.0" y="405">926</text>
  <text class="name" x="168" y="425" text-anchor="end">Cranelift 47.0.2</text>
  <rect class="s-cl" x="176" y="412" width="447.3" height="18" rx="4"/>
  <text class="val" x="629.3" y="425">916.3</text>
  <text class="name" x="168" y="445" text-anchor="end">V8 / Node 25.9</text>
  <rect class="s-v8" x="176" y="432" width="444.8" height="18" rx="4"/>
  <text class="val" x="626.8" y="445">911.2</text>
  <text class="metric" x="168" y="478" text-anchor="end">LZ4 decompress</text>
  <text class="unit" x="176" y="478">MB/s</text>
  <text class="name" x="168" y="501" text-anchor="end">Silverfir (JIT)</text>
  <rect class="s-sf" x="176" y="488" width="421.2" height="18" rx="4"/>
  <text class="val" x="603.2" y="501">3,241</text>
  <text class="name" x="168" y="521" text-anchor="end">Cranelift 47.0.2</text>
  <rect class="s-cl" x="176" y="508" width="452.0" height="18" rx="4"/>
  <text class="val" x="634.0" y="521">3,478</text>
  <text class="name" x="168" y="541" text-anchor="end">V8 / Node 25.9</text>
  <rect class="s-v8" x="176" y="528" width="395.9" height="18" rx="4"/>
  <text class="val" x="577.9" y="541">3,046</text>
  <text class="metric" x="168" y="574" text-anchor="end">sqlite speedtest1</text>
  <text class="unit" x="176" y="574">size/s</text>
  <text class="name" x="168" y="597" text-anchor="end">Silverfir (JIT)</text>
  <rect class="s-sf" x="176" y="584" width="412.2" height="18" rx="4"/>
  <text class="val" x="594.2" y="597">59.88</text>
  <text class="name" x="168" y="617" text-anchor="end">Cranelift 47.0.2</text>
  <rect class="s-cl" x="176" y="604" width="431.3" height="18" rx="4"/>
  <text class="val" x="613.3" y="617">62.66</text>
  <text class="name" x="168" y="637" text-anchor="end">V8 / Node 25.9</text>
  <rect class="s-v8" x="176" y="624" width="452.0" height="18" rx="4"/>
  <text class="val" x="634.0" y="637">65.66</text>
</svg>
